<svg id="Layer_3" data-name="Layer 3" xmlns="http://www.w3.org/2000/svg" viewBox="0 0 2376 742.85"><defs><style>.cls-1{fill:#720e5f;}</style></defs><title>1</title><polygon class="cls-1" points="2376 742.85 2200.5 568.35 2167 602.85 2017.5 453.35 1845.5 625.35 1811.5 591.35 1804 598.85 1763 557.85 1738 582.85 1733.5 578.35 1722.5 589.35 1697.5 564.35 1669.21 592.64 1608.64 452.1 1637.02 452.1 1574.8 307.76 1599.52 307.76 1546.82 185.49 1563.21 185.49 1525 96.85 1486.79 185.49 1503.18 185.49 1450.48 307.76 1475.2 307.76 1431.74 408.59 1368 344.85 1280.5 432.35 1234.25 386.1 1164 456.35 1153.5 456.35 1133 476.85 1124.5 468.35 1118.5 474.35 1064.5 420.35 1057 427.85 1008.5 379.35 914 473.85 823 396.85 741 478.85 731 468.85 725.5 474.35 717 465.85 709 473.85 638.5 403.35 630.5 411.35 595.51 376.36 574.43 327.45 582.38 327.45 564.95 287.01 571.88 287.01 557.11 252.76 561.7 252.76 551 227.93 540.3 252.76 544.89 252.76 530.12 287.01 537.05 287.01 519.62 327.45 527.57 327.45 510.27 367.58 441.5 436.35 362.86 357.71 331.68 285.38 354.48 285.38 304.51 169.42 324.36 169.42 282.03 71.21 295.19 71.21 264.5 0 233.81 71.21 246.97 71.21 204.64 169.42 224.49 169.42 174.52 285.38 197.32 285.38 0 742.85 2376 742.85"/></svg>