<svg id="Layer_3" data-name="Layer 3" xmlns="http://www.w3.org/2000/svg" xmlns:xlink="http://www.w3.org/1999/xlink" viewBox="0 0 2376.5 1293"><defs><style>.cls-1{fill:none;}.cls-2{fill:#a01568;}.cls-3{clip-path:url(#clip-path);}.cls-4{opacity:0.61;fill:url(#radial-gradient);}</style><clipPath id="clip-path" transform="translate(0.5 490)"><polygon class="cls-1" points="1973.97 243.03 2017 200 2146 329 2159 316 2249 406 2400 255 2472 713 2432 816 2336 945 239 888 260 759 216 537 295 505.42 355.21 445.21 398.78 488.78 438.84 395.83 417.74 395.83 463.98 288.54 445.61 288.54 484.78 197.67 472.6 197.67 501 131.79 529.4 197.67 517.22 197.67 556.39 288.54 538.02 288.54 584.26 395.83 563.16 395.83 574.91 423.09 665.5 332.5 833 500 1032.5 300.5 1079.5 347.5 1108.5 318.5 1194.5 404.5 1207 392 1211 396 1220 387 1281.5 448.5 1517.5 212.5 1538.5 233.5 1610.88 161.12 1624.4 129.76 1614.01 129.76 1636.78 76.94 1627.73 76.94 1647.02 32.2 1641.02 32.2 1655 -0.24 1668.98 32.2 1662.98 32.2 1682.27 76.94 1673.22 76.94 1695.99 129.76 1685.6 129.76 1712.76 192.76 1868.5 348.5 1903.71 313.29 1913.5 271.04 1917.86 289.85 1939.59 196.04 1954.34 259.72 1966.09 209 1973.97 243.03"/></clipPath><radialGradient id="radial-gradient" cx="1594.28" cy="-274.2" r="926.66" gradientTransform="translate(231.16 743.89) scale(0.6 0.6)" gradientUnits="userSpaceOnUse"><stop offset="0" stop-color="#ff2cb4"/><stop offset="1" stop-color="#ff2cb4" stop-opacity="0"/></radialGradient></defs><title>2</title><polyline class="cls-2" points="0.21 1292.71 2376.5 1292.71 2375.79 771.71 2251.5 896 2161.5 806 2148.5 819 2019.5 690 1976.47 733.03 1968.59 699 1956.84 749.72 1942.09 686.04 1920.36 779.85 1916 761.04 1906.21 803.29 1871 838.5 1715.26 682.76 1688.1 619.76 1698.49 619.76 1675.72 566.94 1684.77 566.94 1665.48 522.2 1671.48 522.2 1657.5 489.76 1643.52 522.2 1649.52 522.2 1630.23 566.94 1639.28 566.94 1616.51 619.76 1626.9 619.76 1613.38 651.12 1541 723.5 1520 702.5 1284 938.5 1222.5 877 1213.5 886 1209.5 882 1197 894.5 1111 808.5 1082 837.5 1035 790.5 835.5 990 668 822.5 577.41 913.09 565.66 885.83 586.76 885.83 540.52 778.54 558.89 778.54 519.72 687.67 531.9 687.67 503.5 621.79 475.1 687.67 487.28 687.67 448.11 778.54 466.48 778.54 420.24 885.83 441.34 885.83 401.28 978.78 115 692.5 0 807.5 0 1293"/><g id="Layer_3_copy" data-name="Layer 3 copy"><g class="cls-3"><circle class="cls-4" cx="1187" cy="579.5" r="579.5"/></g></g></svg>