<svg id="Layer_3" data-name="Layer 3" xmlns="http://www.w3.org/2000/svg" xmlns:xlink="http://www.w3.org/1999/xlink" viewBox="0 0 2374 1510"><defs><style>.cls-1{fill:none;}.cls-2{fill:#e52c73;}.cls-3{clip-path:url(#clip-path);}.cls-4{fill:url(#radial-gradient);}</style><clipPath id="clip-path" transform="translate(-2 779)"><polygon class="cls-1" points="744.62 264.38 773.5 235.5 824.5 286.5 836.49 274.51 859.74 220.56 852.36 220.56 868.54 183.01 862.11 183.01 875.82 151.21 871.56 151.21 881.5 128.15 891.44 151.21 887.18 151.21 900.89 183.01 894.46 183.01 904.56 206.44 914 197 948 231 958 221 974.5 237.5 989 223 1070 304 1088 322 1326.39 83.61 1335.18 63.22 1330.15 63.22 1341.17 37.63 1336.79 37.63 1346.13 15.96 1343.23 15.96 1350 0.25 1356.77 15.96 1353.87 15.96 1363.21 37.63 1358.83 37.63 1369.85 63.22 1364.82 63.22 1371.34 78.34 1501 208 1531 178 1631.5 278.5 1728.5 181.5 1776 229 1796.5 208.5 1809.5 221.5 1849 182 2004 337 2102.5 238.5 2146 282 2173 255 2210 292 2223 279 2280.5 336.5 2317.5 880.5 1690 782 341.5 900.5 143 673 264 469 511.5 221.5 613.5 323.5 642 295 678 331 701.04 307.96 713.48 279.09 708.04 279.09 719.96 251.44 715.23 251.44 725.32 228.03 722.18 228.03 729.5 211.05 736.82 228.03 733.68 228.03 743.77 251.44 739.04 251.44 744.62 264.38"/></clipPath><radialGradient id="radial-gradient" cx="1227" cy="653" r="653" gradientUnits="userSpaceOnUse"><stop offset="0" stop-color="#ffbf31"/><stop offset="1" stop-color="#ffbf31" stop-opacity="0"/></radialGradient></defs><title>3</title><polygon class="cls-2" points="0 1510 509.5 1000.5 611.5 1102.5 640 1074 676 1110 699.04 1086.96 711.48 1058.09 706.04 1058.09 717.96 1030.44 713.23 1030.44 723.32 1007.03 720.18 1007.03 727.5 990.05 734.82 1007.03 731.68 1007.03 741.77 1030.44 737.04 1030.44 742.62 1043.38 771.5 1014.5 822.5 1065.5 834.49 1053.51 857.74 999.56 850.36 999.56 866.54 962.01 860.11 962.01 873.82 930.21 869.56 930.21 879.5 907.15 889.44 930.21 885.18 930.21 898.89 962.01 892.46 962.01 902.56 985.44 912 976 946 1010 956 1000 972.5 1016.5 987 1002 1068 1083 1086 1101 1324.39 862.61 1333.18 842.22 1328.15 842.22 1339.17 816.63 1334.79 816.63 1344.13 794.96 1341.23 794.96 1348 779.25 1354.77 794.96 1351.87 794.96 1361.21 816.63 1356.83 816.63 1367.85 842.22 1362.82 842.22 1369.34 857.34 1499 987 1529 957 1629.5 1057.5 1726.5 960.5 1774 1008 1794.5 987.5 1807.5 1000.5 1847 961 2002 1116 2100.5 1017.5 2144 1061 2171 1034 2208 1071 2221 1058 2374 1211 2374 1510 0 1510"/><g id="Layer_10" data-name="Layer 10"><g class="cls-3"><circle class="cls-4" cx="1227" cy="653" r="653"/></g></g></svg>