<?xml version="1.0" encoding="utf-8"?>
<!-- Generator: Adobe Illustrator 25.3.1, SVG Export Plug-In . SVG Version: 6.00 Build 0)  -->
<svg version="1.1" id="Layer_1" xmlns="http://www.w3.org/2000/svg" xmlns:xlink="http://www.w3.org/1999/xlink" x="0px" y="0px"
	 viewBox="0 0 23.2 23.2" style="enable-background:new 0 0 23.2 23.2;" xml:space="preserve">
<style type="text/css">
	.st0{fill:#FC1669;}
</style>
<path class="st0" d="M11.6,0C5.2,0,0,5.2,0,11.6C0,18,5.2,23.2,11.6,23.2c6.4,0,11.6-5.2,11.6-11.6C23.2,5.2,18,0,11.6,0z M5.5,7.1
	h12.3c0.1,0,0.2,0,0.3,0L12,12.3c-0.2,0.1-0.4,0.1-0.6,0L5.2,7.1C5.3,7.1,5.4,7.1,5.5,7.1z M4.2,15V8.3c0-0.2,0.1-0.3,0.1-0.4
	L7.9,11l-3.7,4.3C4.2,15.2,4.2,15.1,4.2,15z M17.7,16.2H5.4c-0.2,0-0.3-0.1-0.4-0.1l4-4.4l1.8,1.5c0.3,0.2,0.6,0.3,0.9,0.3
	s0.6-0.1,0.9-0.3l1.8-1.5l3.7,4.4C18,16.2,17.8,16.2,17.7,16.2z M18.9,14.9c0,0.1,0,0.2,0,0.3l-3.7-4.3l3.6-3.1
	c0.1,0.1,0.1,0.3,0.1,0.4V14.9z"/>
</svg>
