<svg id="Layer_1" data-name="Layer 1" xmlns="http://www.w3.org/2000/svg" viewBox="0 0 23.19 23.19"><defs><style>.cls-1{fill:#fc1669;}</style></defs><title>insta</title><g id="Layer_2" data-name="Layer 2"><path class="cls-1" d="M11.59,0a11.6,11.6,0,1,0,11.6,11.59A11.59,11.59,0,0,0,11.59,0ZM9,17.83c-2.35-.17-3.65-1.39-3.74-3.73V8.89A3.61,3.61,0,0,1,9,5.15h5.21A3.61,3.61,0,0,1,18,8.89v2.6a16.5,16.5,0,0,1-.09,2.61c-.09,2.34-1.3,3.65-3.65,3.73H9Zm4.69-6.34a2.09,2.09,0,1,1-2.08-2.08A2.11,2.11,0,0,1,13.69,11.49Zm3,2.61V8.89c0-1.65-.87-2.52-2.6-2.61H8.91a2.38,2.38,0,0,0-2.6,2.61V14.1a2.38,2.38,0,0,0,2.6,2.61h5.22A2.38,2.38,0,0,0,16.73,14.1Zm-5.12.69a3.3,3.3,0,1,1,3.3-3.3A3.29,3.29,0,0,1,11.61,14.79ZM15,8.89a.79.79,0,1,1,.79-.78A.78.78,0,0,1,15,8.89Z" transform="translate(0 0)"/></g></svg>