<svg id="Layer_1" data-name="Layer 1" xmlns="http://www.w3.org/2000/svg" viewBox="0 0 23.19 23.19"><defs><style>.cls-1{fill:#fc1669;}</style></defs><title>linkedin</title><g id="Layer_2" data-name="Layer 2"><path class="cls-1" d="M11.59,0a11.6,11.6,0,1,0,11.6,11.59A11.59,11.59,0,0,0,11.59,0Zm5.49,16.27H15V12.45c0-2.26-2.69-2.09-2.69,0v3.82H10.22V8.8H12.3V10a2.59,2.59,0,0,1,4.78,1.65ZM8,5.5A1.19,1.19,0,0,1,9.17,6.72a1.31,1.31,0,0,1-1.3,1.21A1.17,1.17,0,0,1,6.74,6.72,1.19,1.19,0,0,1,8,5.5ZM9,8.8v7.47H6.92V8.8Z" transform="translate(0 0)"/></g></svg>