<?xml version="1.0" encoding="utf-8"?>
<!-- Generator: Adobe Illustrator 24.1.2, SVG Export Plug-In . SVG Version: 6.00 Build 0)  -->
<svg version="1.1" id="Layer_1" xmlns="http://www.w3.org/2000/svg" xmlns:xlink="http://www.w3.org/1999/xlink" x="0px" y="0px"
	 viewBox="0 0 488.6 80.7" style="enable-background:new 0 0 488.6 80.7;" xml:space="preserve">
<style type="text/css">
	.st0{fill:#6E1141;}
</style>
<path class="st0" d="M268.1,30.8L268.1,30.8l0,18.9c0,0.7-0.6,1.4-1.4,1.4h-8.6c-0.7,0-1.4-0.6-1.4-1.4V2.1c0-0.7,0.6-1.4,1.4-1.4
	h8.6c0.8,0,1.4,0.6,1.4,1.4v18.1h0V30.8z M298.6,0.7H290c-0.8,0-1.4,0.6-1.4,1.4v18.1h-17v10.6h17v18.9c0,0.7,0.6,1.4,1.4,1.4h8.6
	c0.7,0,1.4-0.6,1.4-1.4V2.1C300,1.4,299.3,0.7,298.6,0.7z M0,49.5c-0.1,0.9,0.5,1.6,1.4,1.6h8.5c0.7,0,1.3-0.6,1.4-1.2l3.2-22.2h0.1
	l12.2,23.3c0.2,0.4,0.8,0.8,1.2,0.8h1.3c0.4,0,1-0.4,1.2-0.8l12.1-23.3h0.1L46,50c0.1,0.6,0.7,1.2,1.4,1.2h8.5
	c0.9,0,1.5-0.6,1.4-1.6L49.1,1.2C49,0.5,48.3,0,47.8,0h-1.2c-0.4,0-1,0.3-1.2,0.7L28.7,31.8h-0.1L11.8,0.7C11.6,0.3,11,0,10.6,0H9.5
	C8.9,0,8.2,0.5,8.2,1.2L0,49.5z M143,26.6l0,12.6c-2.2,0.9-4.3,1.2-6.4,1.2c-7.8,0-14.3-6.5-14.3-14.3c0-7.9,6.3-14.5,14.2-14.5
	c3.5,0,6.7,0.9,9.4,3.5c0.6,0.4,1.4,0.4,1.9-0.1l5.7-6c0.6-0.6,0.5-1.4-0.1-1.9c-4.9-4.2-11.5-6.8-17.6-6.8
	C121.6,0.1,110,11.6,110,26c0,14.4,11.5,25.8,25.9,25.8c10.4,0,17.9-4.7,17.9-4.7c0.3-0.2,0.6-0.8,0.6-1.2l-0.1-19.4
	c0-0.7-0.6-1.4-1.3-1.4l-8.6,0C143.6,25.2,143,25.8,143,26.6 M164.2,49.8c0,0.7,0.6,1.4,1.3,1.4H183c13.9,0,25.3-11.3,25.3-25.3
	c0-13.8-11.4-25.1-25.3-25.1h-17.6c-0.7,0-1.3,0.6-1.3,1.4V49.8z M175.4,40.5V11.3h6.9c8.1,0,14,6.4,14,14.5c0,8.2-5.9,14.6-14,14.6
	H175.4z M217.1,49.8c0,0.7,0.6,1.4,1.4,1.4h8.6c0.7,0,1.4-0.6,1.4-1.4V2.1c0-0.7-0.6-1.4-1.4-1.4h-8.6c-0.7,0-1.4,0.6-1.4,1.4V49.8z
	 M355.5,49.8c0,0.7,0.6,1.4,1.4,1.4h31.3c0.8,0,1.4-0.6,1.4-1.4v-7.8c0-0.7-0.6-1.4-1.4-1.4h-15.7v-0.1L390.9,3V2.1
	c0-0.7-0.6-1.4-1.4-1.4h-30.6c-0.7,0-1.4,0.6-1.4,1.4v7.8c0,0.7,0.6,1.4,1.4,1.4h15.7v0.1l-19.2,37V49.8z M431.6,51.1h8
	c1.1,0,1.7-0.9,1.2-1.9L418.3,0.8C418,0.4,417.5,0,417,0h-0.7c-0.5,0-1,0.4-1.2,0.8l-22.5,48.5c-0.4,0.9,0.1,1.9,1.2,1.9h7.9
	c1.4,0,2.2-0.9,2.6-1.7L416.6,22h0.1l12.4,27.4C429.7,50.7,430.3,51.1,431.6,51.1z M479.2,51.1h8c1.1,0,1.7-0.9,1.2-1.9L465.9,0.8
	c-0.2-0.4-0.7-0.8-1.2-0.8H464c-0.5,0-1,0.4-1.2,0.8l-22.5,48.5c-0.4,0.9,0.1,1.9,1.2,1.9h7.9c1.4,0,2.2-0.9,2.6-1.7L464.3,22h0.1
	l12.4,27.4C477.4,50.7,478,51.1,479.2,51.1z M344.9,51.1h8c1.1,0,1.7-0.9,1.2-1.9L331.6,0.8c-0.2-0.4-0.7-0.8-1.2-0.8h-0.7
	c-0.5,0-1,0.4-1.2,0.8l-22.5,48.5c-0.4,0.9,0.1,1.9,1.2,1.9h7.9c1.4,0,2.2-0.9,2.6-1.7L329.9,22h0.1l12.4,27.4
	C343,50.7,343.6,51.1,344.9,51.1z M99,51.1h8c1.1,0,1.7-0.9,1.2-1.9L85.6,0.8C85.4,0.4,84.9,0,84.4,0h-0.7c-0.5,0-1,0.4-1.2,0.8
	L59.9,49.3c-0.4,0.9,0.1,1.9,1.2,1.9h7.9c1.4,0,2.2-0.9,2.6-1.7L84,22H84l12.4,27.4C97.1,50.7,97.7,51.1,99,51.1z"/>
<path class="st0" d="M109,62.7c0-0.3,0.3-0.5,0.5-0.5h9.7c0.3,0,0.4,0.2,0.4,0.5l-0.3,2.1c0,0.3-0.3,0.5-0.5,0.5H112l-0.7,4.9h5.6
	c0.2,0,0.4,0.2,0.4,0.5l-0.3,2.1c0,0.3-0.3,0.5-0.5,0.5h-5.6l-0.9,6.6c-0.1,0.3-0.3,0.5-0.5,0.5h-2.5c-0.3,0-0.4-0.2-0.4-0.5
	L109,62.7z M122.4,62.7c0-0.3,0.3-0.5,0.5-0.5h2.6c0.3,0,0.4,0.2,0.4,0.5l-1.5,10.7c-0.3,2.2,0.7,3.9,2.6,3.9c1.9,0,3.4-1.7,3.7-3.9
	l1.5-10.7c0-0.3,0.3-0.5,0.5-0.5h2.6c0.2,0,0.4,0.2,0.4,0.5l-1.5,10.9c-0.5,4-3.5,7.2-7.6,7.2c-3.6,0-6.2-3.2-5.6-7.2L122.4,62.7z
	 M140.1,62.7c0-0.3,0.3-0.5,0.5-0.5h2.5c0.2,0,0.4,0.2,0.4,0.5l-2.1,14.6h5.8c0.3,0,0.4,0.2,0.4,0.5l-0.3,2.1c0,0.3-0.3,0.5-0.5,0.5
	h-8.7c-0.3,0-0.4-0.2-0.4-0.5L140.1,62.7z M152.2,62.7c0-0.3,0.3-0.5,0.5-0.5h2.5c0.2,0,0.4,0.2,0.4,0.5l-2.1,14.6h5.8
	c0.3,0,0.4,0.2,0.4,0.5l-0.3,2.1c0,0.3-0.3,0.5-0.5,0.5h-8.7c-0.3,0-0.4-0.2-0.4-0.5L152.2,62.7z M167.1,77.9l1-1.5
	c0.2-0.4,0.6-0.3,0.8-0.1c0.4,0.3,1.6,1.4,3.2,1.4c1.2,0,2.3-0.9,2.3-2.2c0-1.1-0.8-1.9-2.2-2.9c-1.7-1.1-3.8-2.6-3.8-5.2
	c0-2.6,1.8-5.4,5.9-5.4c2.4,0,4.2,1.3,4.6,1.7c0.3,0.3,0.3,0.7,0.1,1l-1,1.4c-0.2,0.3-0.5,0.3-0.9,0.1c-0.4-0.3-1.6-1.1-2.9-1.1
	c-1.3,0-2.2,1-2.2,2c0,1,0.7,1.6,2.3,2.6c1.7,1.1,4,2.6,4,5.5c0,3.1-2.4,5.6-6.2,5.6c-2.7,0-4.5-1.6-5-2
	C166.9,78.5,166.8,78.3,167.1,77.9z M184.9,65.3h-3.4c-0.3,0-0.4-0.2-0.4-0.5l0.3-2.1c0-0.3,0.3-0.5,0.5-0.5h10.4
	c0.3,0,0.4,0.2,0.4,0.5l-0.3,2.1c0,0.3-0.3,0.5-0.5,0.5h-3.4L186.3,80c0,0.3-0.3,0.5-0.5,0.5h-2.5c-0.2,0-0.4-0.2-0.4-0.5
	L184.9,65.3z M190.3,79.8l9.8-17.6c0.1-0.2,0.2-0.3,0.4-0.3h0.2c0.2,0,0.3,0.1,0.4,0.3l4.8,17.6c0.1,0.3-0.1,0.7-0.5,0.7h-2.3
	c-0.4,0-0.6-0.1-0.7-0.5l-0.7-2.9h-6.5l-1.5,2.9c-0.1,0.3-0.4,0.5-0.8,0.5h-2.4C190.2,80.5,190.1,80.1,190.3,79.8z M201,74.2
	l-1.2-5.7h-0.1l-2.8,5.7H201z M217.8,61.9c2.3,0,4.2,1,5.4,2.5c0.2,0.2,0.1,0.5-0.1,0.7l-1.4,1.4c-0.3,0.3-0.6,0.2-0.9,0
	c-0.7-0.7-1.8-1.3-3.2-1.3c-3.1,0-5.8,3.2-5.8,7c0,2.8,1.5,5.1,4,5.1c1.5,0,2.7-0.8,3.6-1.5c0.3-0.3,0.6-0.2,0.8,0l1.4,1.7
	c0.1,0.2,0.1,0.5-0.1,0.7c-1.8,1.7-3.8,2.5-5.9,2.5c-4.5,0-7.4-3.6-7.4-8.1C208,66.5,212.4,61.9,217.8,61.9z M226.8,62.8
	c0.1-0.3,0.3-0.6,0.7-0.6h2.5c0.3,0,0.5,0.3,0.5,0.6l-1,7l6.1-7.2c0.3-0.3,0.5-0.5,1.1-0.5h2.6c0.4,0,0.6,0.5,0.3,0.9l-7.1,8
	l5.3,8.6c0.2,0.3-0.1,0.8-0.5,0.8h-2.4c-0.5,0-0.7-0.1-0.9-0.5l-4.6-8.1l-1.1,8c0,0.3-0.3,0.6-0.6,0.6h-2.5c-0.3,0-0.5-0.3-0.5-0.6
	L226.8,62.8z M248.7,62.7c0-0.3,0.3-0.5,0.5-0.5h5.6c4.1,0,7.1,3.7,7.1,7.9c0,5.7-4.1,10.3-9.6,10.3h-5.7c-0.2,0-0.4-0.2-0.3-0.5
	L248.7,62.7z M252.4,77.3c3.2,0,5.8-3,5.8-6.9c0-2.8-1.6-5-4.1-5h-2.5L250,77.3H252.4z M266.5,62.7c0-0.3,0.3-0.5,0.5-0.5h9.7
	c0.3,0,0.4,0.2,0.4,0.5l-0.3,2.1c0,0.3-0.3,0.5-0.5,0.5h-6.7l-0.6,4.3h5.5c0.2,0,0.4,0.2,0.4,0.5l-0.3,2.2c-0.1,0.3-0.3,0.5-0.5,0.5
	h-5.5l-0.7,4.6h6.7c0.3,0,0.4,0.2,0.4,0.5l-0.3,2.1c0,0.3-0.3,0.5-0.5,0.5h-9.7c-0.3,0-0.4-0.2-0.4-0.5L266.5,62.7z M278.3,62.9
	c-0.1-0.3,0.2-0.7,0.5-0.7h2.6c0.2,0,0.3,0.2,0.4,0.3l2.7,10.9h0.1l5.8-10.9c0.1-0.1,0.2-0.3,0.4-0.3h2.9c0.4,0,0.5,0.3,0.3,0.7
	l-9.8,17.6c-0.1,0.2-0.3,0.3-0.4,0.3h-0.2c-0.2,0-0.3-0.1-0.4-0.3L278.3,62.9z M296.4,62.7c0-0.3,0.3-0.5,0.5-0.5h9.7
	c0.3,0,0.4,0.2,0.4,0.5l-0.3,2.1c0,0.3-0.3,0.5-0.5,0.5h-6.7l-0.6,4.3h5.5c0.2,0,0.4,0.2,0.4,0.5l-0.3,2.2c-0.1,0.3-0.3,0.5-0.5,0.5
	h-5.5l-0.7,4.6h6.7c0.3,0,0.4,0.2,0.4,0.5l-0.3,2.1c0,0.3-0.3,0.5-0.5,0.5h-9.7c-0.3,0-0.4-0.2-0.4-0.5L296.4,62.7z M310.7,62.7
	c0-0.3,0.3-0.5,0.5-0.5h2.5c0.2,0,0.4,0.2,0.4,0.5L312,77.3h5.8c0.3,0,0.4,0.2,0.4,0.5l-0.3,2.1c0,0.3-0.3,0.5-0.5,0.5h-8.7
	c-0.3,0-0.4-0.2-0.4-0.5L310.7,62.7z M329.8,61.9c4.2,0,7.3,3.7,7.3,8.2c0,5.9-4.3,10.6-9.8,10.6c-4.3,0-7.3-3.8-7.3-8.1
	C320.1,66.7,324.3,61.9,329.8,61.9z M333.6,70.5c0-2.8-1.7-5.2-4.2-5.2c-3,0-5.8,3.2-5.8,6.9c0,2.8,1.7,5.1,4.2,5.1
	C330.8,77.3,333.6,74.3,333.6,70.5z M341.7,62.7c0-0.3,0.3-0.5,0.5-0.5h5.6c2.6,0,4.5,2.5,4.5,5.2c0,3.8-2.8,6.4-6.1,6.4h-2.7
	l-0.9,6.1c0,0.3-0.3,0.5-0.5,0.5h-2.5c-0.3,0-0.4-0.2-0.4-0.5L341.7,62.7z M346.4,70.7c1.3,0,2.5-1.4,2.5-3.1c0-1.2-0.8-2.2-1.8-2.2
	h-2.4l-0.7,5.2H346.4z M356.1,62.7c0-0.3,0.3-0.5,0.5-0.5h9.7c0.3,0,0.4,0.2,0.4,0.5l-0.3,2.1c0,0.3-0.3,0.5-0.5,0.5h-6.7l-0.6,4.3
	h5.5c0.2,0,0.4,0.2,0.4,0.5l-0.3,2.2c-0.1,0.3-0.3,0.5-0.5,0.5H358l-0.7,4.6h6.7c0.3,0,0.4,0.2,0.4,0.5l-0.3,2.1
	c0,0.3-0.3,0.5-0.5,0.5H354c-0.3,0-0.4-0.2-0.4-0.5L356.1,62.7z M370.3,62.7c0-0.3,0.3-0.5,0.5-0.5h6.9c2.6,0,4.4,2.2,4.4,4.9
	c0,3.2-1.7,5.2-4.1,6l2.1,6.7c0.1,0.3-0.1,0.7-0.4,0.7h-2.5c-0.3,0-0.5-0.1-0.6-0.4l-1.9-6.7h-2.5l-0.9,6.7c0,0.3-0.3,0.5-0.5,0.5
	h-2.5c-0.3,0-0.4-0.2-0.4-0.5L370.3,62.7z M375.9,70.5c1.6,0,2.7-1.4,2.7-3c0-1.2-0.7-2.2-1.7-2.2h-3.6l-0.7,5.2H375.9z"/>
</svg>
