<svg id="Layer_1" data-name="Layer 1" xmlns="http://www.w3.org/2000/svg" viewBox="0 0 488.61 80.72"><defs><style>.cls-1{fill:#6e1141;}</style></defs><path class="cls-1" d="M268.08,30.82h0V49.76a1.35,1.35,0,0,1-1.36,1.36h-8.57a1.41,1.41,0,0,1-1.37-1.36V2.09A1.42,1.42,0,0,1,258.14.72h8.57a1.36,1.36,0,0,1,1.36,1.37V20.23h0ZM298.6.72H290a1.37,1.37,0,0,0-1.37,1.37V20.23h-17V30.82h17V49.76A1.36,1.36,0,0,0,290,51.12h8.56A1.41,1.41,0,0,0,300,49.76V2.09A1.42,1.42,0,0,0,298.6.72ZM0,49.54a1.32,1.32,0,0,0,1.37,1.58H9.88A1.39,1.39,0,0,0,11.25,50l3.17-22.25h.15L26.73,51.05a1.59,1.59,0,0,0,1.23.79h1.29a1.71,1.71,0,0,0,1.23-.79l12.1-23.33h.14L46,50a1.46,1.46,0,0,0,1.37,1.15h8.49a1.31,1.31,0,0,0,1.37-1.58L49.06,1.15A1.38,1.38,0,0,0,47.76,0H46.61a1.61,1.61,0,0,0-1.23.72L28.68,31.83h-.15L11.83.72A1.61,1.61,0,0,0,10.61,0H9.45A1.37,1.37,0,0,0,8.16,1.15Zm143-23v12.6a16.88,16.88,0,0,1-6.4,1.15,14.44,14.44,0,0,1-.08-28.87A13.27,13.27,0,0,1,146,14.91a1.51,1.51,0,0,0,1.94-.08l5.69-6.05a1.26,1.26,0,0,0-.15-1.94A27.78,27.78,0,0,0,135.88.07a25.85,25.85,0,1,0,0,51.7,36.36,36.36,0,0,0,17.86-4.68,1.75,1.75,0,0,0,.58-1.15l-.07-19.37A1.36,1.36,0,0,0,153,25.2h-8.57A1.31,1.31,0,0,0,143,26.57m21.16,23.19a1.34,1.34,0,0,0,1.29,1.36H183a25.2,25.2,0,1,0,0-50.4H165.47a1.35,1.35,0,0,0-1.29,1.37Zm11.23-9.29V11.31h6.91c8.14,0,14,6.4,14,14.54s-5.9,14.62-14,14.62Zm41.69,9.29a1.41,1.41,0,0,0,1.37,1.36h8.64a1.4,1.4,0,0,0,1.36-1.36V2.09A1.41,1.41,0,0,0,227.11.72h-8.64a1.42,1.42,0,0,0-1.37,1.37Zm138.38,0a1.41,1.41,0,0,0,1.37,1.36H388.1a1.36,1.36,0,0,0,1.37-1.36V41.91a1.37,1.37,0,0,0-1.37-1.37H372.4V40.4L390.91,3V2.09A1.42,1.42,0,0,0,389.54.72H358.93a1.41,1.41,0,0,0-1.36,1.37V9.94a1.41,1.41,0,0,0,1.36,1.37h15.7v.14l-19.15,37Zm76.11,1.36h8a1.27,1.27,0,0,0,1.22-1.87L418.26.79A1.46,1.46,0,0,0,417,0h-.72a1.46,1.46,0,0,0-1.22.79L392.56,49.25a1.27,1.27,0,0,0,1.22,1.87h7.92a2.7,2.7,0,0,0,2.6-1.72L416.61,22h.07l12.38,27.36C429.71,50.69,430.29,51.12,431.59,51.12Zm47.66,0h8a1.27,1.27,0,0,0,1.22-1.87L465.93.79A1.47,1.47,0,0,0,464.7,0H464a1.46,1.46,0,0,0-1.22.79L440.22,49.25a1.27,1.27,0,0,0,1.23,1.87h7.92A2.68,2.68,0,0,0,452,49.4L464.27,22h.07l12.39,27.36C477.38,50.69,478,51.12,479.25,51.12Zm-134.35,0h8a1.27,1.27,0,0,0,1.23-1.87L331.58.79A1.47,1.47,0,0,0,330.35,0h-.72a1.46,1.46,0,0,0-1.22.79L305.87,49.25a1.27,1.27,0,0,0,1.23,1.87H315a2.68,2.68,0,0,0,2.59-1.72L329.92,22H330l12.39,27.36C343,50.69,343.6,51.12,344.9,51.12ZM99,51.12h8a1.27,1.27,0,0,0,1.23-1.87L85.63.79A1.47,1.47,0,0,0,84.41,0h-.73a1.47,1.47,0,0,0-1.22.79L59.92,49.25a1.27,1.27,0,0,0,1.23,1.87h7.92a2.68,2.68,0,0,0,2.59-1.72L84,22H84L96.43,49.32C97.08,50.69,97.65,51.12,99,51.12Z"/><path class="cls-1" d="M77,63a.51.51,0,0,1,.49-.62h2.25a.4.4,0,0,1,.36.36l.88,9.8h.11l5.22-10.14a.5.5,0,0,1,.44-.28h.41a.36.36,0,0,1,.37.28l2.09,10.14h.1l3.68-9.8a.58.58,0,0,1,.46-.36h2.46c.34,0,.49.26.34.62L89.84,80.36a.55.55,0,0,1-.47.36H89a.35.35,0,0,1-.36-.28L86,69.24h-.1l-5.74,11.2a.48.48,0,0,1-.44.28h-.36a.38.38,0,0,1-.39-.36Zm22.76-.13a.55.55,0,0,1,.5-.49h9.57a.41.41,0,0,1,.38.49L109.91,65a.55.55,0,0,1-.51.49h-6.62l-.6,4.24h5.48a.42.42,0,0,1,.39.49l-.31,2.15a.57.57,0,0,1-.52.49h-5.48l-.65,4.53h6.65c.26,0,.39.23.36.49L107.82,80a.56.56,0,0,1-.52.49H97.73a.38.38,0,0,1-.36-.49Zm14.1,0a.56.56,0,0,1,.52-.49h5.38a4.25,4.25,0,0,1,4.35,4.21A5.63,5.63,0,0,1,121,71.36,3.8,3.8,0,0,1,123.37,75a5.45,5.45,0,0,1-5.82,5.51h-5.72a.38.38,0,0,1-.36-.49Zm3.52,14.56a2.54,2.54,0,0,0,2.43-2.64,1.92,1.92,0,0,0-1.83-2h-2.15l-.67,4.6Zm.7-7.45a2.54,2.54,0,0,0,2.41-2.69A1.64,1.64,0,0,0,119,65.44h-2.1L116.23,70Zm16.46-7.11a.53.53,0,0,1,.49-.49h5.58c4.09,0,7,3.67,7,7.86,0,5.61-4.11,10.24-9.54,10.24h-5.61a.38.38,0,0,1-.34-.49Zm3.72,14.46c3.16,0,5.77-3,5.77-6.86,0-2.82-1.61-5-4.09-5h-2.43l-1.66,11.82Zm13.95-14.46a.53.53,0,0,1,.49-.49h9.57a.41.41,0,0,1,.38.49L162.35,65a.54.54,0,0,1-.51.49h-6.62l-.6,4.24h5.48a.42.42,0,0,1,.39.49l-.31,2.15a.57.57,0,0,1-.52.49h-5.48l-.65,4.53h6.65c.26,0,.39.23.36.49L160.26,80a.56.56,0,0,1-.52.49h-9.57a.38.38,0,0,1-.36-.49ZM164,63a.52.52,0,0,1,.49-.67H167a.4.4,0,0,1,.37.28L170,73.45h.1l5.75-10.81a.47.47,0,0,1,.41-.28h2.9c.36,0,.49.33.31.67l-9.73,17.41a.54.54,0,0,1-.44.28h-.23a.36.36,0,0,1-.36-.28Zm18-.18a.53.53,0,0,1,.49-.49H192a.4.4,0,0,1,.38.49L192.05,65a.54.54,0,0,1-.51.49h-6.62l-.6,4.24h5.48a.42.42,0,0,1,.39.49l-.31,2.15a.57.57,0,0,1-.52.49h-5.48l-.65,4.53h6.65c.26,0,.39.23.36.49L190,80a.56.56,0,0,1-.52.49h-9.57a.38.38,0,0,1-.36-.49Zm14.09,0a.56.56,0,0,1,.52-.49H199a.41.41,0,0,1,.36.49l-2,14.51h5.72c.25,0,.38.23.36.49L203.15,80a.55.55,0,0,1-.51.49H194a.41.41,0,0,1-.39-.49Zm19-.75c4.19,0,7.27,3.7,7.27,8.09,0,5.82-4.22,10.53-9.67,10.53-4.22,0-7.27-3.72-7.27-8C205.33,66.86,209.49,62.1,215,62.1Zm3.78,8.51c0-2.8-1.71-5.15-4.16-5.15-3,0-5.8,3.13-5.8,6.8,0,2.8,1.71,5.1,4.14,5.1C216,77.36,218.78,74.31,218.78,70.61Zm8.05-7.76a.55.55,0,0,1,.52-.49h5.53c2.59,0,4.47,2.45,4.47,5.17a6.07,6.07,0,0,1-6.07,6.36h-2.64L227.78,80a.56.56,0,0,1-.51.49h-2.49a.39.39,0,0,1-.36-.49Zm4.65,7.89a2.89,2.89,0,0,0,2.49-3,1.94,1.94,0,0,0-1.76-2.15H229.8l-.72,5.2ZM241,62.85a.55.55,0,0,1,.49-.49h9.57a.41.41,0,0,1,.39.49L251.17,65a.56.56,0,0,1-.52.49H244l-.59,4.24h5.48a.44.44,0,0,1,.39.49L249,72.34a.58.58,0,0,1-.52.49H243l-.65,4.53H249c.26,0,.38.23.36.49L249.07,80a.54.54,0,0,1-.51.49H239a.38.38,0,0,1-.36-.49Zm14.1,0a.55.55,0,0,1,.49-.49h6.83a4.54,4.54,0,0,1,4.37,4.83,5.82,5.82,0,0,1-4.11,6l2.12,6.62c.1.34-.05.67-.44.67h-2.46a.53.53,0,0,1-.57-.41l-1.88-6.67H257L256.09,80a.55.55,0,0,1-.49.49h-2.51a.38.38,0,0,1-.36-.49Zm5.54,7.76a2.8,2.8,0,0,0,2.71-3,2,2,0,0,0-1.68-2.15h-3.54l-.73,5.15Zm18.11-.21v-.05l-.39-.6a5.47,5.47,0,0,1-1.27-3.67,4.71,4.71,0,0,1,5-4,3.9,3.9,0,0,1,4,3.83c0,3.23-3.28,5-3.64,5.27l2.07,3a10.1,10.1,0,0,0,1.34-3c.16-.57.39-.83,1-.65l1.19.36c.54.16.57.65.46,1.06a11.24,11.24,0,0,1-2.17,4.38L288,78.55a.76.76,0,0,1-.21,1.19l-1.11.75a.69.69,0,0,1-1-.13l-1.17-1.68a8,8,0,0,1-5.4,2,4.36,4.36,0,0,1-4.58-4.32C274.56,72.47,278.54,70.71,278.78,70.4Zm.9,7.58a4.34,4.34,0,0,0,3.16-1.6l-2.67-3.86c-.28.21-2.53,1.32-2.53,3.34A2,2,0,0,0,279.68,78Zm3.67-11.74a1.57,1.57,0,0,0-1.57-1.66,1.89,1.89,0,0,0-1.87,2,3.25,3.25,0,0,0,.81,1.89l.41.62C281.44,68.88,283.35,68,283.35,66.24Zm15.71-3.39a.55.55,0,0,1,.49-.49h5.59c4.08,0,7,3.67,7,7.86,0,5.61-4.12,10.24-9.55,10.24H297a.37.37,0,0,1-.33-.49Zm3.72,14.46c3.16,0,5.77-3,5.77-6.86,0-2.82-1.6-5-4.08-5H302l-1.65,11.82Zm14-14.46a.55.55,0,0,1,.49-.49h9.57a.41.41,0,0,1,.39.49L326.87,65a.56.56,0,0,1-.52.49h-6.62l-.59,4.24h5.48a.44.44,0,0,1,.39.49l-.31,2.15a.59.59,0,0,1-.52.49H318.7l-.65,4.53h6.65c.25,0,.38.23.36.49L324.77,80a.54.54,0,0,1-.51.49h-9.57a.38.38,0,0,1-.36-.49Zm11,15.08,1-1.48a.5.5,0,0,1,.8-.1,5.24,5.24,0,0,0,3.21,1.34,2.26,2.26,0,0,0,2.3-2.19c0-1.14-.77-1.89-2.22-2.85-1.71-1.11-3.73-2.59-3.73-5.17s1.79-5.38,5.85-5.38a7.1,7.1,0,0,1,4.6,1.68.73.73,0,0,1,.08,1l-1,1.43c-.21.31-.54.33-.9.05a5.1,5.1,0,0,0-2.93-1.14,2.12,2.12,0,0,0-2.2,2c0,1,.7,1.55,2.25,2.58,1.71,1.14,4,2.56,4,5.41,0,3-2.36,5.56-6.18,5.56a7.06,7.06,0,0,1-4.92-2C327.6,78.55,327.47,78.32,327.75,77.93ZM344,62.85a.53.53,0,0,1,.49-.49H347a.39.39,0,0,1,.36.49L344.93,80a.55.55,0,0,1-.49.49H341.9a.4.4,0,0,1-.36-.49Zm15.21-.75a6.7,6.7,0,0,1,5.38,2.46.53.53,0,0,1-.11.72l-1.37,1.34a.59.59,0,0,1-.85,0A4.4,4.4,0,0,0,359,65.33c-3.11,0-5.8,3.21-5.8,6.91,0,2.74,1.73,5.12,4,5.12a5.16,5.16,0,0,0,2.64-.62l.31-2.28h-1.66a.39.39,0,0,1-.38-.46l.28-2a.54.54,0,0,1,.52-.49h4.58a.41.41,0,0,1,.36.49L363,78.19a1.2,1.2,0,0,1-.41.8,9.63,9.63,0,0,1-5.79,1.73c-4.22,0-7.27-3.59-7.27-8C349.51,66.6,353.75,62.1,359.16,62.1Zm9.73.46a.51.51,0,0,1,.49-.46h.67l7.89,11.17h0l1.4-10.42a.53.53,0,0,1,.49-.49h2.51a.43.43,0,0,1,.39.49l-2.46,17.4a.52.52,0,0,1-.49.47h-.7l-7.86-11.51h0L369.82,80a.56.56,0,0,1-.52.49h-2.48a.4.4,0,0,1-.37-.44Zm18.47.29a.54.54,0,0,1,.49-.49h9.57a.41.41,0,0,1,.39.49L397.5,65a.56.56,0,0,1-.52.49h-6.62l-.6,4.24h5.49a.42.42,0,0,1,.38.49l-.31,2.15a.57.57,0,0,1-.51.49h-5.49l-.64,4.53h6.64c.26,0,.39.23.37.49L395.4,80a.55.55,0,0,1-.52.49h-9.57A.39.39,0,0,1,385,80Zm14.1,0a.54.54,0,0,1,.49-.49h6.83a4.55,4.55,0,0,1,4.37,4.83,5.83,5.83,0,0,1-4.11,6l2.12,6.62a.47.47,0,0,1-.44.67h-2.46a.53.53,0,0,1-.57-.41l-1.89-6.67h-2.45L402.41,80a.53.53,0,0,1-.49.49h-2.51a.39.39,0,0,1-.36-.49ZM407,70.61a2.81,2.81,0,0,0,2.72-3A2,2,0,0,0,408,65.46h-3.55l-.72,5.15Z"/></svg>