<svg id="Layer_1" data-name="Layer 1" xmlns="http://www.w3.org/2000/svg" viewBox="0 0 23.19 23.19"><defs><style>.cls-1{fill:#fc1669;}</style></defs><title>vimeo</title><g id="Layer_2" data-name="Layer 2"><path class="cls-1" d="M11.59,0a11.6,11.6,0,1,0,11.6,11.59A11.59,11.59,0,0,0,11.59,0ZM10.44,16.73c-1.09-.47-1.48-2.26-1.8-3.51-.15-.71-.39-1.41-.54-2a5.49,5.49,0,0,0-.55-1.41c-.39-.7-.94,0-1.64-.16-.24,0-.31-.31-.47-.47V9.08A27.1,27.1,0,0,1,8.25,6.81,2.12,2.12,0,0,1,9.66,6.5a1.78,1.78,0,0,1,.94,1.17A16.54,16.54,0,0,1,11,9.47c.15,1,.07,2.42.86,3.2s1.4-.31,1.71-.94a3.31,3.31,0,0,0,.55-1.56c.08-1.17-.47-1.33-1.56-1.25a4.27,4.27,0,0,1,3-2.73c.62-.08,1.64-.08,2,.46a1.44,1.44,0,0,1,.23,1.49A17.75,17.75,0,0,1,15,13.84a9.57,9.57,0,0,1-2.73,2.58A2.4,2.4,0,0,1,10.44,16.73Z" transform="translate(0 0)"/></g></svg>