<?xml version="1.0" encoding="UTF-8"?>
<svg id="katman_1" data-name="katman 1" xmlns="http://www.w3.org/2000/svg" version="1.1" viewBox="0 0 932 184.5">
  <defs>
    <style>
      .cls-1 {
        opacity: .7;
      }

      .cls-1, .cls-2, .cls-3 {
        fill: #720e5f;
        stroke-width: 0px;
      }

      .cls-1, .cls-3 {
        isolation: isolate;
      }

      .cls-3 {
        opacity: .5;
      }
    </style>
  </defs>
  <path class="cls-1" d="M695.6,65.4v116.1h-38.2v-96.3s38.2-19.8,38.2-19.8Z"/>
  <path class="cls-1" d="M184.8,184.5l89.2-46.6-11-28.5-58.7,27.4-19.5,47.7h0Z"/>
  <path class="cls-3" d="M657.4,85.2l96.8-49.5-16.3-27.6-80.4,39.3v37.9h0Z"/>
  <path class="cls-1" d="M384.9,56.2v125.3h-36.4V3.1l36.4,53.2h0Z"/>
  <path class="cls-3" d="M239.9,49.3l-55.1,135.2-28.4-24.4L222.1,3.1l17.8,46.2h0Z"/>
  <path class="cls-2" d="M222.1,3.1h37.6l69.5,178.5h-38.5L222.1,3.1Z"/>
  <path class="cls-2" d="M390.5,3.1l80.2,121.9v56.5L348.5,3.1h42Z"/>
  <path class="cls-2" d="M577.2,3.1h-37.9v178.5h37.9V3.1Z"/>
  <path class="cls-2" d="M657.4,35.6h-58.3V3.1h135.8l19.3,32.6h-96.8Z"/>
  <path class="cls-3" d="M866,113.8v67.7h-37.6v-67.7"/>
  <path class="cls-2" d="M828.4,113.8L892,3.1h40l-66,110.8h-37.6Z"/>
  <path class="cls-1" d="M828.4,113.8L763,3.1h41.1l44.3,75.9-20,34.9h0Z"/>
  <path class="cls-2" d="M15.3,23.7c0,24.9,15.6,39.6,46.9,47.4l33.1,7.5c29.6,6.7,47.6,23.3,47.6,50.3.2,11.8-3.7,23.3-11,32.6,0-27-14.2-41.5-48.4-50.3l-32.5-7.3c-26.1-5.8-46.2-19.5-46.2-48.8,0-11.3,3.6-22.4,10.5-31.4"/>
  <path class="cls-1" d="M470.7,115.8V3.1h36.4v178.5h-36.4v-65.7h0Z"/>
  <path class="cls-1" d="M111.5,122.3c14.1,8.9,20.3,21.3,20.3,39.1-11.7,14.7-32.3,23-56.4,23-40.7,0-69.1-19.7-75.4-53.8h39.1c5,15.7,18.3,23,36.1,23s36.1-11.4,36.4-31.3"/>
  <path class="cls-1" d="M35.6,60.5c-6.4-3.8-11.8-9.2-15.3-15.7-3.6-6.5-5.3-13.8-5-21.2C26.6,9.1,46.2.2,70.1.2c41.4,0,65.4,21.5,71.3,51.8h-37.6c-4.1-11.9-14.5-21.2-33.4-21.2s-34,11.6-34.8,29.8"/>
</svg>