<?xml version="1.0" encoding="utf-8"?>
<!-- Generator: Adobe Illustrator 26.0.1, SVG Export Plug-In . SVG Version: 6.00 Build 0)  -->
<svg version="1.1" id="Layer_1" xmlns="http://www.w3.org/2000/svg" xmlns:xlink="http://www.w3.org/1999/xlink" x="0px" y="0px"
	 viewBox="0 0 2500 2500" style="enable-background:new 0 0 2500 2500;" xml:space="preserve">
<style type="text/css">
	.st0{fill:#720E5F;}
</style>
<path class="st0" d="M0,0v1250v1250h2500V0H0z M1428.8,1356.2h-325v925H873.1v-925h-325v-101.9h0l1.9,0.6v-102.5l437.5-1.9
	c240.6,0,438.7,0.6,438.7,2.5c2.5,1.2,2.5,46.9,2.5,103.1V1356.2z M2275,2091.3c-40,104.4-137.5,175-276.9,198.1
	c-43.8,7.5-143.8,6.2-190.6-1.9c-100-18.8-195.6-68.8-254.4-133.1c-23.1-25-67.5-91.9-65-96.2l23.8-15l93.8-54.4l70.6-41.2
	l16.2,21.9c20.6,32.5,66.9,76.2,93.8,91.2c81.2,41.9,190,36.2,243.8-12.5c23.1-21.2,33.1-43.8,33.1-75c0-28.8-4.4-41.9-18.8-63.8
	c-20-27.5-60-50-172.5-100c-129.4-55-184.4-90-235.6-143.8c-29.4-32.5-56.2-83.1-68.8-125c-9.4-36.2-12.5-125-3.8-160.6
	c26.9-125,121.2-212.5,256.2-237.5c43.8-8.8,146.9-5,190,6.2l-1.2,1.2c63.7,15,112.5,43.8,156.2,89.4c23.1,25,57.5,68.8,60,80
	c0,3.8-108.1,76.9-173.8,117.5c-2.5,1.9-12.5-8.7-22.5-25c-32.5-46.2-65.6-66.2-117.5-70c-75-5-125,34.4-125,100
	c0,20,3.8,31.2,11.2,47.5c16.9,34.4,48.1,55,145,97.5c178.8,76.9,256.2,127.5,303.1,200C2298.8,1868.1,2310.6,1995.6,2275,2091.3z"
	/>
</svg>
