<?xml version="1.0" encoding="utf-8"?>
<!-- Generator: Adobe Illustrator 25.3.1, SVG Export Plug-In . SVG Version: 6.00 Build 0)  -->
<svg version="1.1" id="Layer_1" xmlns="http://www.w3.org/2000/svg" xmlns:xlink="http://www.w3.org/1999/xlink" x="0px" y="0px"
	 viewBox="0 0 678.8 752.8" style="enable-background:new 0 0 678.8 752.8;" xml:space="preserve">
<style type="text/css">
	.st0{fill:#720E5F;}
</style>
<path class="st0" d="M657.9,580.2L352.8,752.8V618.4l190.1-104.6L657.9,580.2L657.9,580.2z M678.8,561.3V200.4l-111.6,64.5v232
	L678.8,561.3L678.8,561.3z M20.9,580.2L326,752.8V618.4L135.8,513.8L20.9,580.2z M0,561.3V200.4l111.6,64.5v232L0,561.3z M13.1,177
	L326,0v129.9L125.5,240.2l-1.6,0.9C123.9,241.1,13.1,177,13.1,177z M665.7,177L352.8,0v129.9l200.5,110.2l1.6,0.9L665.7,177
	L665.7,177z"/>
<path class="st0" d="M326,587.8L138.4,484.6V280.3L326,388.6V587.8z M352.8,587.8l187.6-103.1V280.3L352.8,388.6V587.8z
	 M151.1,256.7l188.3-103.5l188.3,103.5L339.4,365.4L151.1,256.7L151.1,256.7z"/>
</svg>
